<svg xmlns="http://www.w3.org/2000/svg" width="1980" height="1020" viewBox="0 0 1980 1020">
  <defs>
    <linearGradient id="bg" x1="0" y1="0" x2="1" y2="1">
      <stop stop-color="#07111E"/><stop offset=".55" stop-color="#090E17"/><stop offset="1" stop-color="#111018"/>
    </linearGradient>
    <linearGradient id="panel" x1="0" y1="0" x2="1" y2="1">
      <stop stop-color="#141E30"/><stop offset="1" stop-color="#0F1828"/>
    </linearGradient>
    <radialGradient id="auraY"><stop stop-color="#FACC15" stop-opacity=".09"/><stop offset="1" stop-color="#FACC15" stop-opacity="0"/></radialGradient>
    <radialGradient id="auraP"><stop stop-color="#FF2A5F" stop-opacity=".06"/><stop offset="1" stop-color="#FF2A5F" stop-opacity="0"/></radialGradient>
    <pattern id="hex" width="56" height="32" patternUnits="userSpaceOnUse"><path d="M14 0h28l14 16-14 16H14L0 16z" fill="none" stroke="#6C83A3" stroke-width=".5" stroke-opacity=".055"/></pattern>
    <pattern id="micro" width="30" height="30" patternUnits="userSpaceOnUse"><path d="M30 0H0v30" fill="none" stroke="#FACC15" stroke-opacity=".018" stroke-width=".5"/></pattern>
    <filter id="glow" x="-50%" y="-50%" width="200%" height="200%"><feGaussianBlur stdDeviation="3.2" result="g"/><feMerge><feMergeNode in="g"/><feMergeNode in="SourceGraphic"/></feMerge></filter>
    <filter id="shadow" x="-20%" y="-25%" width="140%" height="160%"><feDropShadow dx="0" dy="8" stdDeviation="12" flood-color="#000714" flood-opacity=".5"/></filter>
  </defs>

  <rect width="1980" height="1020" fill="url(#bg)"/>
  <rect width="1980" height="1020" fill="url(#hex)"/>
  <rect x="330" width="1650" height="1020" fill="url(#micro)"/>
  <ellipse cx="1160" cy="80" rx="700" ry="300" fill="url(#auraY)"/>
  <ellipse cx="1830" cy="780" rx="430" ry="350" fill="url(#auraP)"/>
  <path d="M330 875c250-180 420 80 650-110s415-110 565 20 265 50 435-70" fill="none" stroke="#FACC15" stroke-opacity=".045" stroke-width="1.2"/>

  <rect width="330" height="1020" fill="#0B1321"/>
  <rect x="329" width="1" height="1020" fill="#223652"/>
  <ellipse cx="165" cy="120" rx="47" ry="10" fill="#00E5FF" fill-opacity=".08" filter="url(#glow)"/>
  <g transform="translate(165 76)">
    <animateTransform attributeName="transform" type="translate" values="165 76;165 68;165 76" dur="4s" repeatCount="indefinite"/>
    <circle r="47" fill="#071824" stroke="#00E5FF" stroke-opacity=".24"/>
    <circle r="41" fill="none" stroke="#00E5FF" stroke-width="1.3" stroke-dasharray="10 6"><animateTransform attributeName="transform" type="rotate" values="0;360" dur="20s" repeatCount="indefinite"/></circle>
    <path d="M0-25l23 11v19c0 18-23 29-23 29S-23 23-23 5v-19z" fill="#00E5FF" fill-opacity=".075" stroke="#00E5FF" stroke-width="2"/>
    <path d="M-9 3l7 8 14-17" fill="none" stroke="#7DD3FC" stroke-width="2.8" stroke-linecap="round" stroke-linejoin="round"/>
  </g>
  <text x="165" y="153" fill="#6F85A4" font-family="Segoe UI,sans-serif" font-size="9.5" font-weight="700" letter-spacing="2.3" text-anchor="middle">THREAT OPERATIONS</text>
  <text x="165" y="176" fill="#F3F7FF" font-family="Segoe UI,sans-serif" font-size="19" font-weight="700" letter-spacing="1.2" text-anchor="middle">SENTRY GRID</text>

  <g font-family="Segoe UI,sans-serif">
    <g transform="translate(44 212)" fill="none" stroke="#7186A3" stroke-width="1.35"><rect width="8" height="8" rx="1"/><rect x="13" width="8" height="8" rx="1"/><rect y="13" width="8" height="8" rx="1"/><rect x="13" y="13" width="8" height="8" rx="1"/></g><text x="78" y="229" fill="#7F92AC" font-size="12.5">Vulnerability Overview</text>
    <g transform="translate(46 261)" fill="none" stroke="#7186A3" stroke-width="1.35"><circle cx="9" cy="9" r="9"/><path d="M9 4v6l4 3"/></g><text x="78" y="277" fill="#7F92AC" font-size="12.5">Risk Triage</text>
    <rect x="22" y="293" width="286" height="42" rx="8" fill="#FACC15" fill-opacity=".075" stroke="#FACC15" stroke-opacity=".42"/><rect x="22" y="293" width="4" height="42" rx="2" fill="#FACC15" filter="url(#glow)"/>
    <g transform="translate(45 303)" fill="none" stroke="#FACC15" stroke-width="1.5" stroke-linecap="round" stroke-linejoin="round"><path d="M2 2h20v18H2z"/><path d="M6 12l4 4 8-9"/></g><text x="78" y="319" fill="#FACC15" font-size="12.5" font-weight="700">Detailed Triage</text>
  </g>

  <g font-family="Segoe UI,sans-serif">
    <g transform="translate(25 342)" fill="none" stroke="#FACC15" stroke-width="1.7" stroke-linecap="round" stroke-linejoin="round"><path d="M1 1h21l-8 9v8l-5 3V10z"/></g>
    <text x="57" y="359" fill="#FACC15" font-size="11.5" font-weight="800" letter-spacing="1.7">FILTERS</text><line x1="116" y1="355" x2="305" y2="355" stroke="#4B4522"/>
    <text x="25" y="386" fill="#FACC15" font-size="8.5" font-weight="800" letter-spacing="1.3">ENVIRONMENT</text><line x1="116" y1="383" x2="305" y2="383" stroke="#4B4522"/>
    <text x="25" y="403" fill="#9BAEC7" font-size="10.5">Tech Stack (Vendor &gt; Product)</text><rect x="25" y="411" width="280" height="40" rx="5" fill="#080F19"/>
    <text x="25" y="469" fill="#FACC15" font-size="8.5" font-weight="800" letter-spacing="1.3">RISK</text><line x1="65" y1="466" x2="305" y2="466" stroke="#4B4522"/>
    <text x="25" y="486" fill="#9BAEC7" font-size="10.5">CISA Deadline</text><rect x="25" y="494" width="280" height="40" rx="5" fill="#080F19"/>
    <text x="25" y="549" fill="#9BAEC7" font-size="10.5">Ransomware Linked</text><rect x="25" y="557" width="280" height="40" rx="5" fill="#080F19"/>
    <text x="25" y="612" fill="#9BAEC7" font-size="10.5">CVSS Severity</text><rect x="25" y="620" width="280" height="40" rx="5" fill="#080F19"/>
    <text x="25" y="675" fill="#9BAEC7" font-size="10.5">Risk Tier</text><rect x="25" y="683" width="280" height="40" rx="5" fill="#080F19"/>
    <text x="25" y="742" fill="#FACC15" font-size="8.5" font-weight="800" letter-spacing="1.3">VULNERABILITY</text><line x1="122" y1="739" x2="305" y2="739" stroke="#4B4522"/>
    <text x="25" y="759" fill="#9BAEC7" font-size="10.5">CWE</text><rect x="25" y="767" width="280" height="40" rx="5" fill="#080F19"/>
  </g>

  <g font-family="Segoe UI,sans-serif">
    <rect x="82" y="859" width="70" height="64" rx="12" fill="#111C2D" stroke="#263A57"/><text x="117" y="901" fill="#91A5C0" font-size="28" font-weight="800" text-anchor="middle">in</text>
    <rect x="178" y="859" width="70" height="64" rx="12" fill="#111C2D" stroke="#263A57"/>
    <path d="M12 0c-6.6 0-12 5.4-12 12 0 5.3 3.4 9.8 8.2 11.4.6.1.8-.3.8-.6v-2.2c-3.3.7-4-1.4-4-1.4-.5-1.4-1.3-1.8-1.3-1.8-1.1-.7.1-.7.1-.7 1.2.1 1.8 1.2 1.8 1.2 1.1 1.8 2.8 1.3 3.5 1 .1-.8.4-1.3.8-1.6-2.7-.3-5.5-1.3-5.5-5.9 0-1.3.5-2.4 1.2-3.2-.1-.3-.5-1.5.1-3.2 0 0 1-.3 3.3 1.2a11.4 11.4 0 016 0C17.3 4.7 18.3 5 18.3 5c.7 1.7.3 2.9.1 3.2.8.8 1.2 1.9 1.2 3.2 0 4.6-2.8 5.6-5.5 5.9.4.4.8 1.1.8 2.2v3.3c0 .3.2.7.8.6A12 12 0 0024 12C24 5.4 18.6 0 12 0z" fill="#91A5C0" transform="translate(188 868) scale(2.05)"/>
    <text x="165" y="967" fill="#687D99" font-size="10.5" font-weight="600" text-anchor="middle">Built by Beatrice Kungu</text>
  </g>

  <g font-family="Segoe UI,sans-serif">
    <text x="370" y="15" fill="#64748B" font-size="8.5" font-weight="750" letter-spacing="1.65">KNOWN EXPLOITATION &#8226; PRIORITIZATION &#8226; REMEDIATION</text>
    <text x="370" y="32" fill="#FACC15" font-size="9.5" font-weight="800" letter-spacing="1.8">KNOWN EXPLOITATION DETAIL AND TRIAGE REVIEW</text>
    <text x="370" y="68" fill="#F8FAFC" font-size="30" font-weight="750">Detailed Risk Triage</text>
    <text x="370" y="93" fill="#768BA7" font-size="11.5">Detailed vulnerability review using public KEV context, severity, exploitability, ransomware linkage, and affected technology.</text>
    <rect x="1772" y="43" width="158" height="38" rx="19" fill="#101B2C" stroke="#34405A"/>
    <g transform="translate(1787 51)" fill="none" stroke="#FACC15" stroke-width="1.7" stroke-linecap="round" stroke-linejoin="round"><path d="M17 7a8 8 0 1 0 1.5 8"/><path d="M17 2v5h-5"/></g>
    <text x="1818" y="67" fill="#AAB7CA" font-size="11.5" font-weight="650">CLEAR FILTERS</text>
  </g>

  <g id="public-data-context" font-family="Segoe UI,sans-serif">
    <rect x="370" y="112" width="1560" height="54" rx="10" fill="#111A28" stroke="#39445A"/>
    <rect x="370" y="112" width="4" height="54" rx="2" fill="#FACC15"/>
    <g transform="translate(390 126)" fill="none" stroke="#FACC15" stroke-width="1.4" stroke-linecap="round" stroke-linejoin="round"><path d="M2 1h14l5 5v19H2z"/><path d="M16 1v6h5"/><path d="M7 12h9M7 17h9"/></g>
    <text x="426" y="132" fill="#FACC15" font-size="8.8" font-weight="800" letter-spacing="1.45">PUBLIC KEV TRIAGE CONTEXT</text>
    <text x="426" y="151" fill="#93A4BA" font-size="10.4">Use this page for drilldown and prioritization detail. All values and narratives should come from your Power BI visuals and measures.</text>
  </g>

  <g id="queue" font-family="Segoe UI,sans-serif" filter="url(#shadow)">
    <rect x="370" y="184" width="1000" height="422" rx="13" fill="url(#panel)" stroke="#334866"/>
    <path d="M370 238h1000" stroke="#2B3E59"/>
    <circle cx="398" cy="211" r="3" fill="#FACC15"/>
    <text x="412" y="216" fill="#F8FAFC" font-size="13" font-weight="760" letter-spacing=".95">TRIAGE REVIEW QUEUE</text>
    <text x="1342" y="216" fill="#7C9AC7" font-size="8.8" font-weight="700" letter-spacing=".65" text-anchor="end">DETAILED PUBLIC KEV RECORDS FOR REVIEW</text>
  </g>

  <g id="severity-mix" font-family="Segoe UI,sans-serif">
    <rect x="1390" y="184" width="540" height="422" rx="13" fill="url(#panel)" stroke="#2B3E59"/>
    <path d="M1390 238h540" stroke="#2B3E59"/>
    <circle cx="1418" cy="211" r="3" fill="#FACC15"/>
    <text x="1432" y="216" fill="#F8FAFC" font-size="13" font-weight="760" letter-spacing=".95">SEVERITY MIX</text>
    <text x="1902" y="216" fill="#7C9AC7" font-size="8.5" font-weight="700" letter-spacing=".55" text-anchor="end">PUBLICLY KNOWN EXPLOITED VULNERABILITIES BY SEVERITY</text>
  </g>

  <g id="exploitability-signals" font-family="Segoe UI,sans-serif">
    <rect x="370" y="626" width="760" height="364" rx="13" fill="url(#panel)" stroke="#2B3E59"/>
    <path d="M370 680h760" stroke="#2B3E59"/>
    <circle cx="398" cy="653" r="3" fill="#FACC15"/>
    <text x="412" y="658" fill="#F8FAFC" font-size="12.5" font-weight="750" letter-spacing=".9">EXPLOITABILITY SIGNALS</text>
    <text x="1102" y="658" fill="#7C9AC7" font-size="8.8" font-weight="700" letter-spacing=".6" text-anchor="end">ATTACK CONDITIONS AND TRIAGE FACTORS</text>
  </g>

  <g id="technology-concentration" font-family="Segoe UI,sans-serif">
    <rect x="1150" y="626" width="780" height="364" rx="13" fill="url(#panel)" stroke="#2B3E59"/>
    <path d="M1150 680h780" stroke="#2B3E59"/>
    <circle cx="1178" cy="653" r="3" fill="#FACC15"/>
    <text x="1192" y="658" fill="#F8FAFC" font-size="12.5" font-weight="750" letter-spacing=".9">TECHNOLOGY CONCENTRATION</text>
    <text x="1902" y="658" fill="#7C9AC7" font-size="8.8" font-weight="700" letter-spacing=".6" text-anchor="end">PRIORITIZED KEVs BY VENDOR AND PRODUCT</text>
  </g>
</svg>
